HIERARCHY
ROOT hip
{
  OFFSET 0 0 0
  CHANNELS 6 Xposition Yposition Zposition Zrotation Yrotation Xrotation
  JOINT abdomen
  {
    OFFSET 0 20.6881 -0.73152
    CHANNELS 3 Zrotation Xrotation Yrotation
    JOINT chest
    {
      OFFSET 0 11.7043 -0.48768
      CHANNELS 3 Zrotation Xrotation Yrotation
      JOINT neck
      {
        OFFSET 0 22.1894 -2.19456
        CHANNELS 3 Zrotation Xrotation Yrotation
        JOINT head
        {
          OFFSET -0.24384 7.07133 1.2192
          CHANNELS 3 Zrotation Xrotation Yrotation
          JOINT leftEye
          {
            OFFSET 4.14528 8.04674 8.04672
            CHANNELS 3 Zrotation Xrotation Yrotation
            End Site
            {
              OFFSET 1 0 0
            }
          }
          JOINT rightEye
          {
            OFFSET -3.6576 8.04674 8.04672
            CHANNELS 3 Zrotation Xrotation Yrotation
            End Site
            {
              OFFSET 1 0 0
            }
          }
        }
      }
      JOINT rCollar
      {
        OFFSET -2.68224 19.2634 -4.8768
        CHANNELS 3 Zrotation Xrotation Yrotation
        JOINT rShldr
        {
          OFFSET -8.77824 -1.95073 1.46304
          CHANNELS 3 Zrotation Xrotation Yrotation
          JOINT rForeArm
          {
            OFFSET -28.1742 -1.7115 0.48768
            CHANNELS 3 Zrotation Xrotation Yrotation
            JOINT rHand
            {
              OFFSET -22.5879 0.773209 7.07136
              CHANNELS 3 Zrotation Xrotation Yrotation
              JOINT rThumb1
              {
                OFFSET -1.2192 -0.487915 3.41376
                CHANNELS 3 Zrotation Xrotation Yrotation
                JOINT rThumb2
                {
                  OFFSET -3.37035 -0.52449 3.41376
                  CHANNELS 3 Zrotation Xrotation Yrotation
                  End Site
                  {
                    OFFSET -1.78271 -1.18214 1.43049
                  }
                }
              }
              JOINT rIndex1
              {
                OFFSET -7.75947 0.938293 5.60832
                CHANNELS 3 Zrotation Xrotation Yrotation
                JOINT rIndex2
                {
                  OFFSET -2.54057 -0.884171 1.56538
                  CHANNELS 3 Zrotation Xrotation Yrotation
                  End Site
                  {
                    OFFSET -1.62519 -0.234802 1.16502
                  }
                }
              }
              JOINT rMid1
              {
                OFFSET -8.24714 1.18213 3.41376
                CHANNELS 3 Zrotation Xrotation Yrotation
                JOINT rMid2
                {
                  OFFSET -3.10165 -0.590103 1.0647
                  CHANNELS 3 Zrotation Xrotation Yrotation
                  End Site
                  {
                    OFFSET -2.48547 -0.328903 0.83742
                  }
                }
              }
              JOINT rRing1
              {
                OFFSET -8.82822 0.546677 1.51678
                CHANNELS 3 Zrotation Xrotation Yrotation
                JOINT rRing2
                {
                  OFFSET -2.60934 -0.819778 -0.0198488
                  CHANNELS 3 Zrotation Xrotation Yrotation
                  End Site
                  {
                    OFFSET -2.33842 -0.294052 0.168128
                  }
                }
              }
              JOINT rPinky1
              {
                OFFSET -8.27202 -0.0477905 -0.4584
                CHANNELS 3 Zrotation Xrotation Yrotation
                JOINT rPinky2
                {
                  OFFSET -1.82734 -0.647385 -0.700984
                  CHANNELS 3 Zrotation Xrotation Yrotation
                  End Site
                  {
                    OFFSET -1.69225 -0.51767 -0.607171
                  }
                }
              }
            }
          }
        }
      }
      JOINT lCollar
      {
        OFFSET 2.68224 19.2634 -4.8768
        CHANNELS 3 Zrotation Xrotation Yrotation
        JOINT lShldr
        {
          OFFSET 8.77824 -1.95073 1.46304
          CHANNELS 3 Zrotation Xrotation Yrotation
          JOINT lForeArm
          {
            OFFSET 28.1742 -1.7115 0.48768
            CHANNELS 3 Zrotation Xrotation Yrotation
            JOINT lHand
            {
              OFFSET 22.5879 0.773209 7.07136
              CHANNELS 3 Zrotation Xrotation Yrotation
              JOINT lThumb1
              {
                OFFSET 1.2192 -0.487915 3.41376
                CHANNELS 3 Zrotation Xrotation Yrotation
                JOINT lThumb2
                {
                  OFFSET 3.37035 -0.52449 3.41376
                  CHANNELS 3 Zrotation Xrotation Yrotation
                  End Site
                  {
                    OFFSET 1.78271 -1.18214 1.43049
                  }
                }
              }
              JOINT lIndex1
              {
                OFFSET 7.75947 0.938293 5.60832
                CHANNELS 3 Zrotation Xrotation Yrotation
                JOINT lIndex2
                {
                  OFFSET 2.54057 -0.884171 1.56538
                  CHANNELS 3 Zrotation Xrotation Yrotation
                  End Site
                  {
                    OFFSET 1.62519 -0.234802 1.16502
                  }
                }
              }
              JOINT lMid1
              {
                OFFSET 8.24714 1.18213 3.41376
                CHANNELS 3 Zrotation Xrotation Yrotation
                JOINT lMid2
                {
                  OFFSET 3.10165 -0.590103 1.0647
                  CHANNELS 3 Zrotation Xrotation Yrotation
                  End Site
                  {
                    OFFSET 2.48547 -0.328903 0.83742
                  }
                }
              }
              JOINT lRing1
              {
                OFFSET 8.82822 0.546677 1.51678
                CHANNELS 3 Zrotation Xrotation Yrotation
                JOINT lRing2
                {
                  OFFSET 2.60934 -0.819778 -0.0198488
                  CHANNELS 3 Zrotation Xrotation Yrotation
                  End Site
                  {
                    OFFSET 2.33842 -0.294052 0.168128
                  }
                }
              }
              JOINT lPinky1
              {
                OFFSET 8.27202 -0.0477905 -0.4584
                CHANNELS 3 Zrotation Xrotation Yrotation
                JOINT lPinky2
                {
                  OFFSET 1.82734 -0.647385 -0.700984
                  CHANNELS 3 Zrotation Xrotation Yrotation
                  End Site
                  {
                    OFFSET 1.69225 -0.51767 -0.607171
                  }
                }
              }
            }
          }
        }
      }
    }
  }
  JOINT rButtock
  {
    OFFSET -8.77824 4.35084 1.2192
    CHANNELS 3 Zrotation Xrotation Yrotation
    JOINT rThigh
    {
      OFFSET 0 -1.70687 -2.19456
      CHANNELS 3 Zrotation Xrotation Yrotation
      JOINT rShin
      {
        OFFSET 0 -36.8199 0.73152
        CHANNELS 3 Zrotation Xrotation Yrotation
        JOINT rFoot
        {
          OFFSET 0.73152 -45.1104 -5.12064
          CHANNELS 3 Zrotation Xrotation Yrotation
          End Site
          {
            OFFSET -1.1221 -3.69964 12.103
          }
        }
      }
    }
  }
  JOINT lButtock
  {
    OFFSET 8.77824 4.35084 1.2192
    CHANNELS 3 Zrotation Xrotation Yrotation
    JOINT lThigh
    {
      OFFSET 0 -1.70687 -2.19456
      CHANNELS 3 Zrotation Xrotation Yrotation
      JOINT lShin
      {
        OFFSET 0 -36.8199 0.73152
        CHANNELS 3 Zrotation Xrotation Yrotation
        JOINT lFoot
        {
          OFFSET -0.73152 -45.1104 -5.12064
          CHANNELS 3 Zrotation Xrotation Yrotation
          End Site
          {
            OFFSET 1.1221 -3.69964 12.103
          }
        }
      }
    }
  }
}
MOTION
Frames:	4
Frame Time:	0.00833333
126.526 85.1237 17.4311 0.0 0.0 0.0 0.435971 -0.0238512 0.0128201 0.121275 -0.0396248 0.0210493 5.749e-15 7.95139e-16 4.96962e-17 1.73719e-14 9.54166e-15 1.56854e-16 -0.0 0.0 0.0 -0.0 0.0 0.0 2.93091e-15 1.22299e-17 9.93923e-17 6.27857e-14 1.18028e-15 1.59028e-15 1.04725e-12 -2.68757e-13 6.36111e-15 1.19073e-11 5.25562e-13 1.01778e-13 2.81e-11 5.55056e-13 2.44903e-13 4.8517e-11 9.54166e-13 4.06316e-13 2.81054e-11 5.55404e-13 2.3218e-13 7.73091 5.47488 0.417314 2.80992e-11 5.55106e-13 2.38542e-13 2.90554 0.965183 0.102902 2.81063e-11 5.54808e-13 2.38542e-13 10.2786 0.731801 0.0259123 2.80974e-11 5.5779e-13 2.44903e-13 2.22167 -0.733487 -0.20892 2.83403e-15 1.22299e-17 -9.93923e-17 5.93022e-14 1.04983e-15 -3.97569e-16 1.03279e-12 3.52048e-13 -3.18055e-15 1.19131e-11 -1.06847e-13 1.17681e-13 2.80851e-11 5.32519e-13 2.29e-13 4.85138e-11 9.16e-13 4.06316e-13 2.80771e-11 5.34333e-13 2.38542e-13 -7.73091 5.47488 -0.417314 2.80841e-11 5.32743e-13 2.35361e-13 -2.90554 0.965183 -0.102902 2.80769e-11 5.32842e-13 2.37746e-13 -10.2786 0.731801 -0.0259123 2.80903e-11 5.32345e-13 2.25819e-13 -2.22167 -0.733487 0.20892 -2.03217e-16 0.0 -3.88251e-19 0.651967 -4.7111 -0.0694763 -0.000843932 2.99807 0.0038202 -0.32636 1.72324 0.0697852 2.03217e-16 0.0 3.88251e-19 0.0331265 -2.68025 0.0231604 0.00579508 -0.679757 0.050543 0.296173 3.3702 -0.0966817
119.619 83.3623 7.48983 -100.701 -84.4866 114.307 2.58414 -0.605055 0.733796 0.555714 -4.0632 0.215219 -2.93615 1.02661 -2.31195 3.37947 0.0681247 -4.16569 -0.0 0.0 0.0 -0.0 0.0 0.0 4.52028e-14 -9.58109e-13 1.03663e-14 17.2559 13.7549 -0.873804 -5.80983 -3.05889 8.57309 0.0289289 -3.77432 -0.526296 -2.01524e-10 -8.54133e-11 -1.81325e-11 -3.48871e-10 -1.47258e-10 -3.33019e-11 -2.01518e-10 -8.54115e-11 -1.81445e-11 7.73091 5.47488 0.417314 -2.01524e-10 -8.54119e-11 -1.81353e-11 2.90554 0.965183 0.102902 -2.01518e-10 -8.54106e-11 -1.81358e-11 10.2786 0.731801 0.0259123 -2.01527e-10 -8.5408e-11 -1.81299e-11 2.22167 -0.733487 -0.20892 4.51233e-14 -9.58109e-13 1.01357e-14 -22.1196 11.0412 1.38659 5.30952 -2.67822 -7.9841 -0.00044842 0.469793 -0.0660171 -3.13693e-10 3.32399e-11 -8.84564e-11 -5.41619e-10 5.74951e-11 -1.51939e-10 -3.13701e-10 3.32388e-11 -8.84475e-11 -7.73091 5.47488 -0.417314 -3.13695e-10 3.32377e-11 -8.84491e-11 -2.90554 0.965183 -0.102902 -3.13702e-10 3.32371e-11 -8.84481e-11 -10.2786 0.731801 -0.0259123 -3.13687e-10 3.32375e-11 -8.84575e-11 -2.22167 -0.733487 0.20892 -2.03217e-16 0.0 -3.88251e-19 3.06401 -9.1643 8.65589 -0.00365241 3.45281 -0.0455536 0.0629874 -3.35454 -8.65042 2.03217e-16 0.0 3.88251e-19 -0.630238 -2.69907 -11.9743 0.0100518 -1.50611 0.115573 1.89176 -10.6833 9.07437
119.609 83.3753 7.74074 -105.198 -84.3664 118.724 4.86939 -1.21502 1.49906 1.04366 -8.3208 0.424364 -5.93517 2.09385 -4.74843 6.95496 0.157635 -8.55267 -0.0 0.0 0.0 -0.0 0.0 0.0 9.36783e-14 -2.0067e-12 1.90212e-14 36.0105 28.2607 -1.99687 -10.964 -6.06121 17.7084 -0.016512 -7.76233 -1.09018 -4.38229e-10 -1.76377e-10 -6.64591e-11 -7.58504e-10 -3.04092e-10 -1.18868e-10 -4.38222e-10 -1.76374e-10 -6.64706e-11 7.73091 5.47488 0.417314 -4.38229e-10 -1.76374e-10 -6.64583e-11 2.90554 0.965183 0.102902 -4.38224e-10 -1.76371e-10 -6.64593e-11 10.2786 0.731801 0.0259123 -4.38233e-10 -1.76369e-10 -6.64537e-11 2.22167 -0.733487 -0.20892 9.36172e-14 -2.0067e-12 1.87541e-14 -46.128 22.7063 3.02218 10.121 -5.33778 -16.4828 0.00025444 0.965452 -0.135684 -7.40055e-10 7.85796e-11 -1.68342e-10 -1.27777e-09 1.35924e-10 -2.88783e-10 -7.40063e-10 7.85753e-11 -1.68333e-10 -7.73091 5.47488 -0.417314 -7.40059e-10 7.85747e-11 -1.68333e-10 -2.90554 0.965183 -0.102902 -7.40064e-10 7.85734e-11 -1.68334e-10 -10.2786 0.731801 -0.0259123 -7.40048e-10 7.85748e-11 -1.6834e-10 -2.22167 -0.733487 0.20892 -2.03217e-16 0.0 -3.88251e-19 7.09559 -13.4134 18.1383 -0.00557132 3.92191 -0.0965523 -1.1905 -8.34295 -18.0348 2.03217e-16 0.0 3.88251e-19 -1.2947 -2.6982 -24.5268 0.016396 -2.34788 0.177832 8.74176 -24.1786 20.3371
119.57 83.3727 7.98374 -110.016 -84.2398 123.435 6.92438 -1.76634 2.17666 1.50803 -12.1097 0.615636 -8.56028 3.05978 -6.94468 10.1679 0.200061 -12.4971 -0.0 0.0 0.0 -0.0 0.0 0.0 1.29747e-13 -2.87435e-12 3.09001e-14 53.377 41.2197 -3.38595 -14.7616 -8.35647 25.9784 -0.124714 -11.3191 -1.60672 -6.60771e-10 -2.5735e-10 -5.48872e-11 -1.14365e-09 -4.43681e-10 -1.00718e-10 -6.60764e-10 -2.57345e-10 -5.4898e-11 7.73091 5.47488 0.417314 -6.60772e-10 -2.57346e-10 -5.48831e-11 2.90554 0.965183 0.102902 -6.60767e-10 -2.57341e-10 -5.48846e-11 10.2786 0.731801 0.0259123 -6.60776e-10 -2.5734e-10 -5.48794e-11 2.22167 -0.733487 -0.20892 1.29702e-13 -2.87435e-12 3.06059e-14 -68.2227 33.0383 4.87199 13.7462 -7.41192 -24.1404 0.00190339 1.40937 -0.198105 -9.9725e-10 9.86545e-11 -2.65827e-10 -1.72188e-09 1.70653e-10 -4.56628e-10 -9.97257e-10 9.86476e-11 -2.6582e-10 -7.73091 5.47488 -0.417314 -9.97255e-10 9.86475e-11 -2.65818e-10 -2.90554 0.965183 -0.102902 -9.97259e-10 9.86457e-11 -2.6582e-10 -10.2786 0.731801 -0.0259123 -9.97242e-10 9.86479e-11 -2.65824e-10 -2.22167 -0.733487 0.20892 -2.03217e-16 0.0 -3.88251e-19 11.9315 -16.4981 26.9661 -0.00691149 4.36226 -0.144461 -3.70782 -12.2192 -26.6969 2.03217e-16 0.0 3.88251e-19 -1.9505 -2.3613 -35.9642 0.0242011 -3.15879 0.245894 20.2777 -34.2832 33.2524
